<?xml version="1.0" standalone="no"?>
<!DOCTYPE svg PUBLIC "-//W3C//DTD SVG 20010904//EN"
 "http://www.w3.org/TR/2001/REC-SVG-20010904/DTD/svg10.dtd">
<svg version="1.0" xmlns="http://www.w3.org/2000/svg"
 width="1371.000000pt" height="640.000000pt" viewBox="0 0 1371.000000 640.000000"
 preserveAspectRatio="xMidYMid meet">

<g transform="translate(0.000000,640.000000) scale(0.100000,-0.100000)"
fill="#000000" stroke="none">
<path d="M6380 5988 l0 -235 -25 -23 c-29 -27 -32 -56 -9 -88 19 -28 74 -30
97 -4 26 29 22 78 -8 98 l-25 16 -2 231 c-2 173 -6 231 -15 235 -10 3 -13 -48
-13 -230z m55 -288 c9 -15 -4 -47 -22 -54 -45 -18 -76 31 -42 65 15 15 24 17
39 9 10 -5 22 -15 25 -20z"/>
<path d="M5769 6173 c-1 -4 -3 -143 -5 -308 -2 -165 -4 -303 -4 -307 0 -5 -6
-8 -14 -8 -33 0 -36 -82 -4 -104 33 -23 64 -19 87 10 27 34 26 46 -4 82 l-25
30 -2 302 c-2 232 -6 304 -15 308 -7 2 -13 0 -14 -5z"/>
<path d="M6160 6103 c-45 -16 -53 -77 -15 -113 l25 -23 0 -206 0 -206 210
-210 210 -210 0 -347 c0 -301 -2 -348 -15 -348 -21 0 -26 -32 -23 -150 l3
-105 48 -3 47 -3 0 130 c0 110 -2 131 -15 131 -13 0 -15 46 -15 355 l0 356
-210 208 -210 208 0 201 0 201 25 25 c14 14 25 36 25 49 0 38 -53 73 -90 60z"/>
<path d="M6785 6098 c-44 -25 -48 -73 -9 -109 l25 -24 -4 -200 -4 -200 103
-105 103 -106 1 -454 c1 -401 -1 -455 -14 -462 -13 -7 -16 -31 -16 -134 l0
-125 48 3 47 3 3 123 c2 117 2 124 -18 129 -20 5 -20 11 -20 468 l0 463 -100
98 -100 99 0 202 0 202 25 25 c33 33 32 69 -1 95 -30 24 -41 25 -69 9z m65
-38 c8 -14 8 -26 0 -40 -19 -35 -80 -20 -80 20 0 40 61 55 80 20z"/>
<path d="M4370 5960 c-44 -44 -10 -110 58 -110 35 0 49 -12 280 -243 l242
-243 0 -198 c0 -197 0 -198 -25 -228 -40 -47 -29 -96 26 -113 29 -9 73 24 77
58 2 18 -5 35 -22 52 l-26 26 0 207 0 207 -250 250 c-224 224 -250 253 -250
282 0 40 -30 73 -65 73 -14 0 -34 -9 -45 -20z m76 -21 c24 -26 8 -54 -31 -54
-39 0 -55 28 -31 54 11 12 24 21 31 21 7 0 20 -9 31 -21z m542 -1018 c8 -5 12
-21 10 -37 -3 -32 -38 -45 -64 -24 -40 34 9 90 54 61z"/>
<path d="M2760 5948 c0 -7 160 -173 355 -368 295 -295 355 -360 355 -382 0
-35 32 -68 65 -68 57 0 85 70 44 111 -17 17 -29 20 -57 15 l-37 -5 -352 352
c-195 193 -358 354 -363 355 -6 2 -10 -2 -10 -10z"/>
<path d="M5947 5880 c-35 -28 -36 -71 -2 -98 l25 -20 0 -661 c0 -581 -2 -661
-15 -661 -8 0 -15 -3 -15 -7 0 -5 -1 -62 -2 -128 l-3 -120 48 -3 47 -3 0 130
c0 110 -2 131 -15 131 -13 0 -15 80 -15 658 l0 659 25 23 c66 62 -7 155 -78
100z"/>
<path d="M6976 5875 c-25 -25 -29 -54 -12 -80 9 -14 21 -25 26 -25 6 0 10 -28
10 -62 l0 -63 105 -102 105 -102 0 -500 c0 -439 -2 -501 -15 -501 -13 0 -15
-21 -15 -131 l0 -130 48 3 47 3 3 105 c3 118 -2 150 -23 150 -13 0 -15 66 -15
508 l0 507 -105 105 c-101 101 -105 106 -105 148 0 36 6 49 30 72 17 15 30 37
30 49 0 49 -79 81 -114 46z m72 -17 c33 -33 -1 -78 -48 -63 -37 12 -20 75 20
75 9 0 21 -5 28 -12z"/>
<path d="M5532 5744 c-32 -22 -30 -76 3 -102 24 -19 25 -23 25 -153 l0 -134
100 -100 99 -100 1 -355 c1 -316 0 -355 -14 -358 -14 -3 -16 -23 -16 -133 l0
-130 48 3 47 3 3 116 c2 94 0 120 -13 132 -13 13 -15 65 -15 370 l0 354 -105
103 -105 104 0 129 c0 125 1 130 25 153 64 59 -12 148 -83 98z m81 -36 c8 -24
-13 -48 -42 -48 -31 0 -45 20 -36 51 10 31 66 29 78 -3z"/>
<path d="M6567 5730 c-35 -28 -36 -68 -2 -100 21 -20 24 -31 24 -93 l0 -71
105 -105 106 -104 0 -407 c0 -401 0 -408 -20 -413 -20 -5 -20 -12 -18 -129 l3
-123 45 0 45 0 3 123 c2 102 0 123 -13 128 -13 5 -15 58 -15 423 l0 416 -105
105 -105 105 0 62 c0 53 4 66 25 87 62 62 -9 150 -78 96z m81 -49 c4 -28 -40
-50 -63 -31 -20 17 -19 57 3 69 22 13 56 -8 60 -38z"/>
<path d="M7755 5648 c-22 -17 -26 -27 -22 -53 5 -30 -4 -41 -154 -191 l-159
-159 0 -142 c0 -138 -1 -143 -25 -167 -32 -32 -32 -60 0 -91 30 -31 55 -32 83
-2 29 31 28 68 -3 97 -24 23 -25 27 -25 159 l0 135 152 153 c141 141 155 153
189 153 65 0 97 73 49 112 -29 24 -51 23 -85 -4z m-299 -726 c32 -21 18 -72
-21 -72 -26 0 -45 26 -37 50 6 17 22 30 37 30 6 0 15 -4 21 -8z"/>
<path d="M10142 5589 c-16 -14 -22 -30 -20 -52 2 -30 -35 -69 -545 -577 -446
-444 -553 -546 -578 -550 -19 -3 -40 -16 -52 -31 -41 -56 20 -123 81 -88 23
13 27 22 27 57 l0 42 545 545 c518 518 547 545 581 545 44 0 69 25 69 68 0 56
-66 81 -108 41z m79 -25 c19 -23 -1 -49 -37 -49 -30 0 -42 20 -30 51 7 19 50
18 67 -2z m-1190 -1200 c14 -17 5 -40 -24 -58 -13 -8 -22 -6 -38 10 -17 18
-19 25 -10 43 14 25 53 28 72 5z"/>
<path d="M5333 5550 c-41 -16 -42 -89 -2 -110 16 -9 19 -22 19 -93 l0 -82 105
-105 c103 -103 105 -106 105 -151 0 -36 -5 -51 -25 -69 -33 -31 -33 -72 1 -99
15 -12 32 -21 39 -21 7 0 24 9 39 21 34 27 35 70 1 97 -21 17 -25 28 -25 77
l0 58 -105 105 -105 106 0 72 c0 65 2 73 25 88 31 20 34 67 5 96 -21 21 -42
24 -77 10z m65 -51 c4 -31 -20 -53 -47 -44 -45 14 -30 79 17 73 21 -2 28 -9
30 -29z m206 -585 c19 -19 20 -25 3 -48 -19 -26 -61 -18 -65 12 -7 50 28 70
62 36z"/>
<path d="M2315 5526 c-11 -8 -18 -26 -18 -46 0 -43 35 -74 76 -66 26 5 57 -23
459 -424 l430 -430 229 0 228 0 25 -25 c38 -38 81 -33 105 12 36 69 -59 129
-107 68 l-20 -25 -223 0 -224 0 -427 427 c-390 390 -426 429 -421 454 10 53
-64 90 -112 55z m66 -16 c23 -13 25 -55 3 -64 -34 -13 -54 -6 -60 21 -5 19 -2
30 11 40 22 16 21 16 46 3z m1433 -903 c26 -19 18 -61 -12 -65 -44 -7 -67 32
-36 62 19 19 25 20 48 3z"/>
<path d="M4010 5387 c0 -7 81 -93 180 -192 169 -168 180 -182 180 -217 0 -62
68 -91 110 -46 26 28 26 58 -1 87 -15 16 -30 22 -53 20 -30 -3 -47 11 -215
179 -101 100 -187 182 -192 182 -5 0 -9 -6 -9 -13z"/>
<path d="M9550 5293 c-26 -9 -40 -35 -40 -72 1 -34 -25 -61 -517 -548 l-517
-513 -401 0 -401 0 -22 25 c-42 48 -112 22 -112 -42 0 -61 71 -85 112 -38 l22
25 410 0 411 0 520 520 c493 493 522 520 556 520 83 0 95 102 14 123 -11 3
-27 3 -35 0z m48 -32 c18 -11 11 -51 -10 -65 -35 -22 -74 27 -48 59 14 17 38
19 58 6z m-1963 -1116 c0 -26 -4 -30 -31 -33 -34 -3 -49 16 -38 50 4 15 13 18
37 16 28 -3 32 -7 32 -33z"/>
<path d="M6149 5260 c-35 -21 -30 -91 7 -113 11 -6 14 -36 14 -119 l0 -112
105 -106 105 -107 0 -132 c0 -110 -2 -131 -15 -131 -13 0 -15 -21 -15 -131 l0
-130 48 3 47 3 3 105 c3 118 -2 150 -23 150 -13 0 -15 23 -15 137 l0 137 -105
106 -105 107 0 100 c0 93 2 101 25 123 25 24 33 71 17 98 -11 17 -73 25 -93
12z m66 -23 c13 -10 16 -21 11 -40 -5 -22 -12 -27 -36 -27 -38 0 -55 28 -34
58 17 25 33 27 59 9z"/>
<path d="M8220 4945 c-225 -225 -311 -305 -328 -305 -57 0 -90 -45 -66 -91 24
-47 72 -52 103 -12 16 19 20 35 16 57 -6 30 8 45 287 323 l293 293 225 2 c192
3 225 5 225 18 0 13 -33 15 -225 18 l-225 2 -305 -305z m-316 -338 c11 -8 17
-23 14 -38 -2 -20 -8 -24 -38 -24 -29 0 -36 4 -38 23 -4 25 13 52 32 52 7 0
20 -6 30 -13z"/>
<path d="M10800 5220 c-12 -12 -20 -33 -20 -53 0 -29 -36 -68 -388 -420 l-387
-387 -348 0 c-304 0 -347 2 -347 15 0 15 -37 35 -66 35 -24 0 -54 -38 -54 -68
0 -60 72 -83 114 -37 l23 25 344 0 344 0 390 390 c375 375 391 390 427 390 45
0 78 28 78 65 0 14 -9 34 -20 45 -11 11 -31 20 -45 20 -14 0 -34 -9 -45 -20z
m70 -20 c24 -24 25 -34 6 -50 -20 -15 -56 -9 -70 12 -8 13 -6 22 8 37 24 26
31 26 56 1z m-1581 -838 c21 -39 -36 -81 -67 -50 -16 16 -15 55 1 61 27 11 57
6 66 -11z"/>
<path d="M11820 4853 c-14 -18 -19 -35 -15 -52 5 -23 -47 -78 -512 -543 l-518
-517 -214 -1 c-203 -1 -214 -1 -235 19 -44 42 -116 17 -116 -41 0 -53 78 -79
115 -38 17 19 31 20 234 20 l216 0 530 529 c506 505 531 529 561 524 25 -4 35
0 53 22 26 34 26 46 0 79 -28 35 -70 35 -99 -1z m85 -14 c4 -5 4 -21 1 -35 -6
-21 -12 -25 -39 -22 -32 3 -45 23 -33 54 6 16 62 19 71 3z m-1611 -1085 c9 -4
16 -18 16 -34 0 -42 -51 -56 -70 -20 -20 38 12 70 54 54z"/>
<path d="M11146 4710 c-95 -95 -115 -110 -143 -110 -40 0 -73 -30 -73 -65 0
-14 9 -34 20 -45 43 -43 110 -10 110 53 0 28 15 47 110 142 103 102 127 135
99 135 -7 0 -62 -49 -123 -110z"/>
<path d="M5527 4652 c-24 -27 -21 -65 8 -92 20 -19 25 -33 25 -71 0 -39 -4
-48 -20 -52 -20 -5 -20 -12 -18 -129 l3 -123 48 -3 47 -3 0 126 c0 102 -3 127
-15 131 -11 4 -15 21 -15 56 0 42 4 53 25 70 29 23 34 68 9 92 -21 22 -77 20
-97 -2z m81 -14 c16 -16 15 -33 -4 -52 -21 -22 -51 -20 -64 4 -22 42 34 82 68
48z"/>
<path d="M6142 4658 c-19 -19 -14 -76 7 -97 28 -28 34 -109 9 -122 -16 -9 -18
-24 -18 -134 l0 -125 50 0 50 0 0 125 c0 102 -3 127 -15 131 -11 4 -15 21 -15
56 0 39 5 54 22 67 24 20 29 71 8 95 -15 19 -81 21 -98 4z"/>
<path d="M2401 4404 c-26 -33 -26 -55 -3 -84 25 -31 67 -29 101 4 l27 26 240
0 241 0 23 -25 c29 -30 49 -31 84 -4 50 39 24 109 -41 109 -22 0 -37 -8 -51
-27 l-19 -26 -236 -3 -236 -2 -30 29 c-38 36 -73 37 -100 3z m699 -8 c19 -23
8 -61 -18 -64 -44 -7 -67 32 -36 62 19 20 38 20 54 2z m-620 -11 c10 -12 10
-21 2 -40 -16 -35 -61 -32 -74 5 -14 41 44 69 72 35z"/>
<path d="M3765 4418 c-28 -16 -35 -28 -35 -65 0 -22 7 -37 22 -47 32 -22 55
-20 84 9 24 24 29 25 157 25 l132 0 100 -100 99 -100 394 0 394 0 28 -30 c33
-35 58 -38 88 -10 27 25 29 71 4 93 -25 23 -75 21 -97 -3 -18 -19 -31 -20
-409 -20 l-391 0 -100 100 -100 100 -133 0 -134 0 -28 30 c-30 32 -44 36 -75
18z m55 -32 c6 -8 10 -25 8 -38 -6 -42 -78 -32 -78 11 0 37 46 55 70 27z
m1386 -204 c31 -21 18 -72 -19 -72 -43 0 -60 35 -31 64 17 17 33 20 50 8z"/>
<path d="M4527 4419 c-44 -25 -40 -101 5 -118 28 -10 67 3 85 29 13 19 27 20
257 20 l243 0 23 -25 c13 -14 33 -25 45 -25 31 0 65 36 65 69 0 61 -81 84
-118 34 l-19 -26 -238 -1 -237 -1 -29 28 c-31 29 -53 33 -82 16z m681 -18 c8
-5 12 -21 10 -37 -2 -21 -9 -30 -26 -32 -44 -7 -67 32 -36 62 17 18 32 20 52
7z m-618 -16 c15 -18 10 -45 -12 -59 -33 -20 -69 20 -54 60 7 18 50 18 66 -1z"/>
<path d="M10552 4175 l-30 -25 -269 0 -268 0 -100 -100 -100 -100 -1027 0
c-916 0 -1028 2 -1028 15 0 13 -19 15 -127 13 l-128 -3 0 -45 0 -45 126 -3
c120 -2 127 -2 132 18 5 20 9 20 1038 20 l1033 0 107 105 107 106 255 -3 255
-3 26 -27 c15 -17 36 -28 51 -28 57 0 89 82 43 114 -32 23 -62 20 -96 -9z"/>
<path d="M5390 3105 l0 -1005 1005 0 1005 0 0 1005 0 1005 -1005 0 -1005 0 0
-1005z m1970 0 l0 -965 -965 0 -965 0 0 965 0 965 965 0 965 0 0 -965z"/>
<path d="M5060 3965 c0 -13 -119 -15 -1101 -15 l-1100 0 -107 -105 -106 -105
-262 0 -263 0 -25 25 c-49 49 -125 16 -112 -49 11 -56 70 -75 112 -35 21 20
33 21 293 22 l272 2 106 108 106 107 1090 0 c1080 0 1089 0 1094 -20 5 -19 14
-20 129 -20 122 0 124 0 130 24 3 13 4 35 2 47 -3 24 -5 24 -130 27 -109 2
-128 0 -128 -13z m-2986 -211 c30 -30 8 -69 -35 -62 -35 5 -47 33 -25 57 23
25 39 26 60 5z"/>
<path d="M800 3768 c-41 -45 -11 -108 53 -108 29 0 53 -21 217 -185 l185 -185
789 0 789 0 107 105 106 105 1007 0 c897 0 1007 -2 1007 -15 0 -13 19 -15 128
-13 l127 3 3 42 c3 38 1 43 -23 49 -46 11 -229 -5 -238 -21 -7 -13 -142 -15
-1016 -15 l-1009 0 -103 -102 -103 -103 -780 -3 -779 -2 -179 177 c-173 173
-178 178 -176 217 1 30 -4 43 -21 58 -31 24 -66 23 -91 -4z"/>
<path d="M1091 3763 c-35 -44 4 -110 58 -100 21 4 40 -9 111 -79 l86 -84 700
0 699 0 105 105 105 105 1047 0 c985 0 1048 -1 1057 -17 8 -15 28 -18 123 -21
128 -4 142 2 136 60 l-3 33 -127 3 c-109 2 -128 0 -128 -13 0 -13 -115 -15
-1058 -15 l-1057 0 -105 -105 -105 -105 -690 0 -690 0 -78 78 c-71 71 -77 80
-71 109 13 65 -73 100 -115 46z"/>
<path d="M11466 3774 c-9 -8 -16 -32 -16 -53 0 -35 -8 -46 -77 -115 l-78 -76
-688 0 -688 0 -106 105 -105 105 -989 0 c-881 0 -989 2 -989 15 0 13 -19 15
-127 13 l-128 -3 -3 -33 c-5 -54 6 -59 132 -61 106 -2 116 0 126 19 11 20 14
20 987 20 l976 0 107 -105 106 -105 702 0 702 0 80 80 c65 65 85 80 110 80 44
0 84 42 75 78 -3 15 -13 33 -22 40 -23 17 -68 15 -87 -4z"/>
<path d="M11759 3769 c-16 -16 -20 -29 -16 -54 5 -31 -3 -40 -177 -214 l-182
-181 -775 0 -774 0 -105 105 -105 105 -942 0 c-932 0 -942 0 -953 20 -9 18
-21 20 -98 20 -48 0 -104 -3 -125 -7 -37 -6 -38 -6 -35 -47 l3 -41 124 -3
c104 -2 126 0 133 13 8 13 114 15 942 15 l933 0 107 -105 108 -105 786 0 787
0 185 185 c164 164 188 185 217 185 40 0 73 30 73 65 0 57 -70 85 -111 44z"/>
<path d="M3263 3370 c-22 -9 -39 -44 -34 -70 10 -52 88 -69 117 -25 l16 25
845 0 c840 0 845 0 850 -20 5 -20 12 -20 132 -18 l126 3 0 45 0 45 -127 3
c-109 2 -128 0 -128 -13 0 -13 -93 -15 -846 -15 l-846 0 -30 25 c-32 27 -41
29 -75 15z"/>
<path d="M7474 3346 c-3 -8 -4 -29 -2 -48 l3 -33 128 -3 c108 -2 127 0 127 13
0 13 88 15 798 15 l797 0 205 -205 205 -205 262 0 c247 0 263 -1 275 -19 8
-11 26 -25 41 -32 50 -23 104 40 77 91 -24 44 -75 45 -118 2 -15 -15 -43 -16
-272 -12 l-255 5 -209 208 -209 207 -796 0 c-709 -1 -796 1 -799 15 -5 21
-250 23 -258 1z"/>
<path d="M12257 3140 l-35 -30 -561 0 c-322 0 -561 -4 -561 -9 0 -5 7 -12 16
-15 9 -3 264 -6 567 -6 548 0 551 0 573 -21 28 -26 68 -28 94 -4 29 26 26 69
-6 94 -35 28 -47 27 -87 -9z"/>
<path d="M1556 3144 c-35 -35 -5 -114 43 -114 11 0 33 11 49 25 l30 25 668 2
c438 2 669 6 669 13 0 7 -231 11 -669 13 l-669 2 -23 25 c-27 29 -74 33 -98 9z"/>
<path d="M5057 3130 c-5 -20 -9 -20 -894 -20 l-888 0 -100 -100 -100 -100
-338 0 -339 0 -30 25 c-37 31 -58 32 -86 2 -27 -29 -28 -68 -2 -92 29 -26 70
-22 96 9 l23 26 345 0 344 0 99 100 98 100 888 0 c585 0 887 -3 887 -10 0 -6
50 -10 131 -10 l130 0 -3 43 -3 42 -126 3 c-120 2 -127 2 -132 -18z m-2697
-219 c13 -25 13 -27 -6 -45 -35 -36 -87 0 -64 44 14 26 56 26 70 1z"/>
<path d="M7474 3136 c-3 -8 -4 -27 -2 -43 l3 -28 124 -3 c103 -2 125 0 135 13
10 14 49 16 349 13 l337 -3 103 -102 102 -103 346 0 346 0 23 -25 c30 -32 64
-32 95 0 30 29 31 45 4 79 -27 34 -68 34 -99 1 l-23 -25 -338 0 -337 0 -106
105 -106 105 -350 0 c-304 0 -350 2 -350 15 0 22 -248 22 -256 1z m1954 -238
c2 -19 -3 -30 -17 -38 -28 -15 -61 3 -61 34 0 31 9 37 45 34 24 -2 31 -8 33
-30z"/>
<path d="M9848 3113 c-21 -2 -38 -8 -38 -14 0 -5 197 -9 506 -9 l507 0 105
-105 104 -105 346 0 345 0 23 -25 c13 -14 34 -25 49 -25 32 0 65 33 65 65 0
60 -84 89 -116 40 l-16 -25 -341 0 -341 0 -106 105 -107 105 -474 -2 c-261 -1
-491 -3 -511 -5z m1980 -214 c4 -31 -20 -53 -47 -44 -23 7 -34 31 -25 57 4 15
13 18 37 16 26 -2 33 -8 35 -29z"/>
<path d="M8110 2935 c-23 -25 -25 -25 -196 -25 -163 0 -174 1 -184 20 -10 18
-21 20 -124 20 -127 0 -140 -6 -134 -62 l3 -33 128 -3 c108 -2 127 0 127 13 0
13 25 15 180 15 178 0 179 0 204 -25 31 -30 55 -32 90 -4 31 25 34 61 6 89
-28 28 -71 26 -100 -5z"/>
<path d="M3736 2928 c-22 -31 -20 -64 6 -88 29 -27 64 -25 92 5 l23 25 602 0
c406 0 601 -3 601 -10 0 -7 45 -10 128 -8 l127 3 3 39 c2 24 -2 42 -10 47 -7
5 -64 9 -126 9 -111 0 -113 0 -122 -25 l-10 -25 -593 0 -594 0 -23 25 c-31 33
-82 34 -104 3z"/>
<path d="M1768 2730 l-22 -30 -171 0 -170 0 -100 -100 -100 -100 -196 0 c-109
0 -204 -3 -213 -6 -47 -18 5 -24 202 -24 l217 0 100 100 100 100 171 0 c158 0
172 -1 189 -20 55 -61 146 18 95 83 -30 38 -72 37 -102 -3z m73 0 c27 -15 25
-58 -3 -69 -31 -12 -58 4 -58 34 0 13 8 29 18 34 21 13 20 13 43 1z"/>
<path d="M2015 2748 c-27 -15 -35 -28 -35 -59 0 -55 83 -82 114 -37 15 21 17
21 333 19 l318 -2 100 -100 100 -99 223 0 c191 0 222 2 222 15 0 13 -30 15
-212 15 l-213 0 -108 105 -108 105 -319 0 -319 0 -25 25 c-28 28 -41 30 -71
13z"/>
<path d="M3276 2743 c-21 -11 -26 -21 -26 -51 0 -48 14 -62 62 -62 27 0 40 5
48 20 11 20 21 20 854 20 748 0 845 -2 850 -15 5 -13 26 -15 128 -13 l123 3 0
45 0 45 -126 3 c-120 2 -127 2 -132 -18 -5 -20 -10 -20 -840 -20 l-835 0 -15
24 c-20 29 -56 37 -91 19z"/>
<path d="M10760 2735 l-23 -25 -1504 0 c-1329 0 -1503 2 -1503 15 0 13 -21 15
-125 15 -125 0 -125 0 -131 -25 -3 -14 -3 -36 0 -50 6 -25 6 -25 130 -25 115
0 124 1 129 20 5 20 14 20 1502 20 l1498 0 23 -25 c45 -49 114 -23 114 43 0
59 -68 82 -110 37z"/>
<path d="M12024 2735 l-25 -25 -317 0 -317 0 -105 -105 -104 -105 -216 -2
c-135 -2 -215 -7 -215 -13 0 -6 82 -11 220 -13 l220 -2 105 105 105 105 313 0
314 0 20 -25 c37 -47 118 -20 118 40 0 32 -33 65 -65 65 -14 0 -37 -11 -51
-25z"/>
<path d="M1510 2528 c-62 -67 31 -148 96 -83 l25 25 259 0 c224 0 260 2 260
15 0 13 -36 15 -261 15 l-262 0 -23 25 c-28 31 -67 32 -94 3z"/>
<path d="M12030 2530 c-27 -27 -25 -56 5 -85 31 -32 56 -31 93 0 26 22 39 25
138 27 145 4 144 22 -2 26 -103 2 -113 4 -134 27 -29 31 -72 33 -100 5z"/>
<path d="M5056 2515 c-5 -13 -86 -15 -698 -15 l-692 0 -106 -105 -107 -105
-338 0 -337 0 -20 25 c-38 48 -118 24 -118 -36 0 -30 9 -43 37 -58 28 -15 70
-5 84 20 9 18 27 19 357 19 l347 0 105 105 105 105 692 0 c586 0 693 -2 693
-14 0 -11 26 -15 118 -18 64 -2 123 -2 130 0 9 3 12 19 10 46 l-3 41 -126 3
c-106 2 -128 0 -133 -13z"/>
<path d="M7474 2516 c-3 -8 -4 -27 -2 -43 l3 -28 128 -3 c108 -2 127 0 127 13
0 13 100 15 907 15 l907 0 106 -105 107 -105 135 0 c128 0 136 -1 150 -22 30
-44 118 -14 118 41 0 60 -91 86 -124 36 -16 -24 -19 -25 -140 -25 l-123 0
-103 105 -104 105 -913 0 c-803 0 -914 2 -919 15 -9 21 -252 22 -260 1z m2644
-208 c30 -30 0 -75 -43 -64 -41 11 -29 76 15 76 9 0 21 -5 28 -12z"/>
<path d="M2261 2395 l-107 -105 -728 0 -728 0 -20 25 c-24 31 -70 33 -98 5
-26 -26 -25 -60 0 -88 27 -29 66 -28 94 3 l23 25 736 0 736 0 103 105 102 105
148 2 c199 4 197 22 -3 26 l-151 3 -107 -106z m-1607 -91 c21 -21 20 -37 -5
-60 -24 -22 -52 -10 -57 25 -7 43 32 65 62 35z"/>
<path d="M9806 2491 c-12 -18 33 -21 332 -21 l306 0 106 -105 107 -105 345 0
c335 0 345 -1 363 -20 28 -31 84 -24 105 13 13 24 13 30 0 55 -21 37 -73 42
-105 12 -23 -22 -27 -22 -364 -21 l-340 1 -100 100 -99 100 -325 0 c-181 0
-328 -4 -331 -9z"/>
<path d="M11442 2488 c4 -10 45 -14 154 -16 l150 -3 104 -104 103 -105 300 0
c294 0 299 0 316 -22 20 -24 71 -29 95 -8 21 16 20 74 0 94 -25 26 -81 20
-100 -9 l-16 -25 -292 0 -291 0 -105 105 -105 105 -158 0 c-123 0 -158 -3
-155 -12z m1208 -183 c26 -32 -13 -81 -47 -59 -35 22 -23 74 17 74 10 0 23 -7
30 -15z"/>
<path d="M3980 2318 c-27 -30 -25 -62 6 -87 35 -28 59 -26 90 4 l25 25 479 0
c424 0 480 -2 480 -15 0 -13 19 -15 128 -13 l127 3 3 33 c6 56 -7 62 -134 62
-103 0 -114 -2 -124 -20 -10 -20 -21 -20 -486 -20 l-476 0 -20 25 c-25 32 -70
33 -98 3z m78 -10 c33 -33 -11 -89 -51 -66 -33 18 -15 78 23 78 9 0 21 -5 28
-12z"/>
<path d="M8976 2315 l-23 -25 -610 0 c-600 0 -611 0 -616 20 -5 18 -13 20
-121 18 -128 -1 -139 -6 -134 -60 l3 -33 128 -3 c108 -2 127 0 127 13 0 13 70
15 614 15 596 0 615 -1 628 -19 36 -52 118 -29 118 33 0 64 -70 89 -114 41z
m78 -11 c22 -21 20 -40 -6 -58 -39 -28 -84 20 -52 55 21 23 38 24 58 3z"/>
<path d="M2680 2123 c-24 -8 -40 -34 -40 -63 0 -59 77 -81 120 -35 23 25 28
26 145 24 l120 -1 106 -104 105 -104 394 0 394 0 21 -24 c29 -35 57 -40 88
-15 34 26 36 70 5 99 -29 26 -50 25 -86 -5 l-30 -25 -387 0 -388 0 -107 105
-106 105 -128 0 c-122 0 -130 1 -158 25 -30 25 -40 28 -68 18z m58 -60 c2 -24
-1 -33 -17 -38 -26 -8 -61 11 -61 33 0 26 21 43 50 40 20 -2 26 -9 28 -35z
m1390 -185 c32 -32 -18 -87 -53 -58 -15 13 -20 51 -8 63 11 11 48 8 61 -5z"/>
<path d="M4492 2114 c-29 -20 -30 -74 -2 -99 17 -16 20 -31 20 -109 l0 -90
-57 -58 c-52 -53 -61 -58 -100 -58 -46 0 -63 -17 -63 -63 0 -56 85 -79 116
-32 9 14 14 34 11 47 -5 18 8 37 63 94 l70 72 0 87 c0 78 3 90 25 117 30 36
31 48 4 82 -23 29 -54 33 -87 10z m-118 -440 c19 -7 21 -45 4 -62 -32 -32 -80
8 -58 48 11 21 27 25 54 14z"/>
<path d="M9298 2117 c-28 -22 -32 -60 -8 -90 28 -36 73 -37 96 -2 15 23 23 25
88 25 l71 0 103 -103 104 -102 301 -3 c276 -3 304 -5 322 -21 33 -31 59 -34
88 -10 51 39 25 109 -40 109 -17 0 -38 -8 -48 -20 -17 -19 -31 -20 -315 -20
l-297 0 -98 100 -99 100 -79 0 c-72 0 -82 2 -103 25 -25 27 -59 32 -86 12z
m63 -17 c29 -16 25 -58 -6 -66 -14 -3 -32 -4 -40 0 -21 8 -19 53 3 65 21 13
20 13 43 1z"/>
<path d="M6158 2023 c-16 -4 -18 -19 -18 -129 0 -104 2 -124 15 -124 13 0 15
-41 15 -305 l0 -304 -26 -26 c-20 -20 -24 -32 -19 -53 19 -79 125 -65 125 16
0 20 -7 36 -21 45 -20 15 -21 22 -20 314 0 164 0 301 1 306 0 4 7 7 15 7 13 0
15 20 15 124 0 120 -1 124 -22 130 -25 6 -34 6 -60 -1z"/>
<path d="M5520 1895 c0 -104 2 -125 15 -125 13 0 15 -56 15 -443 l0 -442 105
-105 105 -105 0 -164 c0 -155 -1 -166 -22 -188 -26 -28 -27 -82 -2 -100 10 -7
30 -13 44 -13 58 0 84 84 35 116 l-25 16 0 172 0 171 -105 105 -105 105 0 433
c0 425 0 434 20 439 19 5 20 14 20 129 l0 124 -50 0 -50 0 0 -125z m284 -1594
c21 -23 18 -49 -6 -65 -40 -25 -80 44 -42 71 23 17 28 17 48 -6z"/>
<path d="M5730 1897 c0 -102 3 -126 15 -131 12 -4 15 -26 15 -107 0 -91 -2
-102 -22 -118 -23 -19 -28 -72 -8 -96 16 -20 51 -23 83 -8 23 11 27 20 27 53
0 31 -5 43 -25 56 -24 16 -25 21 -25 115 0 89 2 99 20 109 19 10 20 19 18 128
l-3 117 -47 3 -48 3 0 -124z m84 -389 c16 -26 -4 -53 -40 -53 -25 0 -30 4 -32
29 -6 46 47 63 72 24z"/>
<path d="M5940 2018 c0 -2 -1 -57 -2 -122 0 -100 2 -120 16 -128 14 -8 16 -32
16 -176 l0 -167 -105 -105 -105 -105 0 -123 c0 -115 -2 -125 -22 -141 -26 -22
-29 -74 -5 -98 19 -20 70 -21 91 -3 10 7 16 28 16 51 0 30 -5 42 -25 55 -24
16 -25 20 -25 132 l0 115 105 107 105 106 0 172 c0 144 2 174 15 178 12 5 15
29 15 130 l0 124 -45 0 c-25 0 -45 -1 -45 -2z m-126 -1100 c16 -26 -4 -53 -40
-53 -25 0 -30 4 -32 29 -6 46 47 63 72 24z"/>
<path d="M6350 1897 c0 -116 1 -125 20 -130 20 -5 20 -14 20 -348 l0 -344 100
-100 99 -100 2 -129 c1 -119 0 -130 -19 -145 -12 -9 -24 -27 -27 -41 -8 -34
27 -80 61 -80 25 0 74 40 74 60 0 18 -22 54 -40 67 -14 10 -17 34 -18 150 l-2
138 -100 99 -100 99 0 338 c0 261 3 338 13 341 9 4 12 37 12 124 l0 119 -47 3
-48 3 0 -124z m290 -1321 c6 -8 10 -25 8 -38 -2 -19 -9 -23 -38 -23 -29 0 -36
4 -38 23 -4 28 14 52 38 52 10 0 23 -7 30 -14z"/>
<path d="M6557 2013 c-4 -3 -7 -57 -7 -120 0 -112 0 -114 25 -123 l25 -10 0
-173 c0 -172 0 -174 -25 -197 -34 -32 -33 -72 2 -99 66 -53 140 41 78 99 -25
23 -25 25 -25 196 0 104 4 175 10 179 6 4 10 58 10 131 l0 124 -43 0 c-24 0
-47 -3 -50 -7z"/>
<path d="M6760 1896 c0 -115 1 -124 20 -129 20 -5 20 -14 20 -402 l0 -397 -25
-20 c-48 -38 -24 -118 36 -118 60 1 85 60 45 107 l-26 31 0 401 c0 350 2 401
15 401 13 0 15 21 15 125 l0 125 -50 0 -50 0 0 -124z"/>
<path d="M6970 1896 c0 -105 2 -126 15 -126 13 0 15 -37 15 -276 l0 -277 105
-107 105 -106 0 -335 0 -335 -25 -22 c-25 -22 -33 -64 -17 -88 9 -13 46 -34
62 -34 20 0 60 49 60 73 0 13 -11 34 -25 47 l-25 23 0 346 0 345 -105 104
-105 104 0 263 c0 255 1 265 20 275 19 10 20 19 18 128 l-3 117 -47 3 -48 3 0
-125z"/>
<path d="M7180 1896 c0 -105 2 -126 15 -126 13 0 15 -33 15 -233 l0 -232 153
-153 152 -152 232 0 232 0 25 -25 c43 -43 116 -22 116 34 0 37 -19 60 -57 67
-26 5 -35 1 -54 -20 l-23 -26 -230 0 -231 0 -143 143 -142 142 0 226 c0 219 1
227 20 232 20 5 20 12 18 124 l-3 118 -47 3 -48 3 0 -125z m905 -880 c0 -17
-7 -33 -18 -40 -15 -9 -22 -7 -37 12 -26 32 -11 65 28 60 22 -2 27 -8 27 -32z"/>
<path d="M5151 1941 c-6 -11 -11 -35 -11 -53 0 -30 -28 -61 -308 -341 l-307
-307 -892 0 -892 0 -27 25 c-34 32 -58 32 -89 0 -29 -28 -32 -55 -7 -83 30
-35 57 -36 95 -2 l35 30 893 0 894 0 315 315 c298 299 316 314 354 317 31 2
44 9 55 29 12 22 12 29 0 55 -12 24 -21 29 -56 32 -33 2 -44 -1 -52 -17z m83
-23 c23 -38 -36 -77 -64 -43 -10 12 -10 21 -1 41 13 29 47 30 65 2z m-2534
-678 c22 -40 -26 -80 -58 -48 -13 13 -16 50 -5 61 14 14 53 6 63 -13z"/>
<path d="M7557 1942 c-10 -10 -17 -33 -17 -50 0 -37 37 -67 74 -60 21 4 51
-22 199 -171 149 -149 175 -180 175 -205 -1 -32 31 -66 62 -66 27 0 70 39 70
64 0 37 -36 67 -78 65 -35 -3 -44 5 -208 168 -156 157 -170 174 -166 201 8 58
-72 97 -111 54z m531 -490 c-2 -21 -9 -28 -29 -30 -31 -4 -53 20 -44 47 13 43
78 28 73 -17z"/>
<path d="M8426 1929 c-35 -28 -35 -70 0 -98 18 -14 34 -19 50 -15 20 5 39 -8
114 -82 l90 -88 0 -149 0 -150 280 -278 c268 -268 279 -280 278 -316 -1 -27 5
-41 21 -55 45 -35 101 -10 101 46 0 40 -26 66 -66 66 -25 0 -70 41 -307 278
l-277 277 0 145 0 145 -90 90 c-81 81 -90 93 -90 127 0 28 -6 42 -26 57 -15
12 -32 21 -39 21 -7 0 -24 -9 -39 -21z m72 -46 c3 -28 -1 -33 -23 -39 -29 -7
-55 10 -55 35 0 25 22 42 50 39 20 -2 26 -9 28 -35z"/>
<path d="M1940 1690 c-40 -40 -11 -110 45 -110 15 0 36 11 49 25 22 24 26 25
202 27 111 2 179 7 179 13 0 6 -68 11 -179 13 -176 2 -180 3 -202 27 -28 30
-67 32 -94 5z"/>
<path d="M5180 1663 c-26 -9 -40 -35 -40 -73 0 -34 -28 -64 -571 -605 l-571
-570 -400 -3 -399 -3 -30 31 c-33 32 -49 36 -80 19 -47 -25 -43 -100 6 -119
28 -10 60 0 80 26 8 11 95 14 422 16 l413 3 578 578 c554 554 579 577 614 577
65 0 92 70 42 109 -27 21 -37 24 -64 14z m-2030 -1238 c28 -34 -26 -84 -57
-52 -23 23 -9 67 21 67 13 0 29 -7 36 -15z"/>
<path d="M10770 1530 c-26 -26 -26 -72 0 -95 29 -26 70 -22 95 9 l21 26 273 0
c214 0 272 3 269 13 -4 9 -69 13 -275 15 l-270 2 -23 25 c-28 30 -63 32 -90 5z"/>
<path d="M10080 1523 c-41 -14 -54 -78 -22 -106 10 -10 34 -17 53 -17 31 0 58
-24 336 -302 212 -212 306 -299 313 -292 7 7 -81 102 -294 315 -268 268 -304
307 -299 329 8 43 -45 88 -87 73z m58 -55 c4 -34 -27 -54 -58 -38 -39 21 -16
73 30 68 19 -2 26 -10 28 -30z"/>
<path d="M3250 1475 l-23 -25 -437 0 -436 0 -249 -251 c-224 -224 -253 -250
-277 -245 -66 13 -104 -72 -52 -113 33 -26 45 -26 78 0 20 15 26 29 26 57 0
35 14 51 243 280 l242 242 431 0 431 0 23 -25 c14 -15 35 -25 50 -25 57 0 84
76 40 112 -31 25 -62 23 -90 -7z m85 -25 c10 -32 -5 -51 -39 -48 -24 2 -32 8
-34 27 -7 45 59 64 73 21z"/>
<path d="M8965 1385 c-32 -31 -32 -59 1 -91 19 -20 31 -24 51 -19 24 6 43 -10
200 -167 150 -150 173 -177 173 -204 0 -38 27 -64 67 -64 54 0 82 60 49 105
-10 14 -26 19 -57 20 -43 0 -47 3 -212 168 -103 103 -167 175 -165 185 5 35
-13 73 -38 82 -36 14 -42 13 -69 -15z m79 -27 c16 -26 -4 -53 -40 -53 -23 0
-30 5 -32 23 -2 13 -1 30 2 38 8 20 56 14 70 -8z m450 -440 c16 -26 -26 -68
-52 -52 -19 12 -27 37 -18 60 8 20 56 14 70 -8z"/>
<path d="M5976 1163 c-3 -3 -6 -129 -6 -278 l0 -272 -25 -23 c-47 -44 -22
-110 42 -110 61 0 85 71 38 114 l-25 23 0 271 c0 246 -4 294 -24 275z"/>
<path d="M4867 932 c-26 -29 -22 -78 8 -98 25 -16 25 -19 25 -146 0 -99 3
-129 13 -126 8 3 13 41 15 130 2 118 4 126 27 148 29 27 32 56 9 88 -19 28
-74 30 -97 4z"/>
<path d="M3075 855 c-30 -29 -32 -55 -7 -85 25 -31 67 -29 101 4 l27 26 240 0
241 0 23 -25 c13 -14 33 -25 45 -25 31 0 65 36 65 69 0 61 -81 84 -118 34
l-20 -28 -237 -2 -237 -3 -28 30 c-34 36 -63 38 -95 5z m693 -4 c8 -5 12 -21
10 -37 -2 -21 -9 -30 -26 -32 -44 -7 -67 32 -36 62 17 18 32 20 52 7z"/>
<path d="M6361 814 c-28 -35 -26 -60 4 -88 l25 -23 2 -251 c2 -160 7 -252 13
-252 6 0 11 91 13 248 l2 249 25 23 c33 31 34 83 3 104 -33 23 -64 19 -87 -10z"/>
</g>
</svg>
